<?xml version="1.0" standalone="no"?>
<!DOCTYPE svg PUBLIC "-//W3C//DTD SVG 20010904//EN"
 "http://www.w3.org/TR/2001/REC-SVG-20010904/DTD/svg10.dtd">
<svg version="1.0" xmlns="http://www.w3.org/2000/svg"
 width="370.000000pt" height="370.000000pt" viewBox="0 0 370.000000 370.000000"
 preserveAspectRatio="xMidYMid meet">
<metadata>
Created by potrace 1.11, written by Peter Selinger 2001-2013
</metadata>
<g transform="translate(0.000000,370.000000) scale(0.100000,-0.100000)"
fill="#000000" stroke="none">
<path d="M1645 3614 c-283 -42 -517 -123 -725 -254 -435 -272 -721 -685 -822
-1182 -20 -98 -23 -143 -23 -338 0 -253 15 -357 81 -557 172 -526 596 -954
1119 -1132 221 -74 296 -85 575 -85 277 0 351 10 571 84 518 172 945 599 1118
1117 73 217 86 306 86 568 0 200 -3 245 -23 343 -145 718 -694 1268 -1408
1413 -87 17 -150 22 -314 24 -113 2 -218 1 -235 -1z m548 -73 c713 -155 1246
-706 1367 -1416 23 -134 29 -388 11 -510 -96 -663 -536 -1201 -1156 -1415
-919 -316 -1926 191 -2219 1117 -60 191 -70 269 -70 523 0 206 2 248 22 338
159 728 715 1259 1441 1377 132 22 476 13 604 -14z"/>
<path d="M1714 3396 c-3 -9 2 -98 12 -198 l19 -182 128 -3 127 -2 0 28 c0 25
-5 29 -37 35 -21 3 -59 6 -85 6 l-48 0 0 56 0 56 85 -7 85 -7 0 30 c0 35 -13
40 -120 45 l-55 2 0 45 0 45 101 -4 101 -3 6 28 c3 16 3 31 1 33 -2 2 -74 6
-159 9 -137 4 -155 3 -161 -12z"/>
<path d="M1345 3336 c-96 -32 -155 -57 -155 -66 0 -6 158 -340 165 -348 4 -5
169 54 205 73 34 17 60 61 60 100 0 36 -50 85 -86 85 l-28 0 26 28 c49 52 44
108 -11 137 -41 21 -93 18 -176 -9z m96 -56 c12 -7 19 -21 19 -41 0 -24 -6
-32 -32 -43 -74 -30 -76 -30 -93 10 -21 51 -19 60 18 72 43 14 65 14 88 2z
m69 -162 c23 -25 24 -32 9 -60 -10 -19 -65 -48 -92 -48 -8 0 -24 23 -35 50
l-21 51 22 8 c12 4 29 11 37 14 31 12 60 6 80 -15z"/>
<path d="M2542 3153 c-7 -49 -23 -134 -37 -191 -14 -57 -25 -109 -25 -115 0
-14 63 -57 84 -57 7 0 19 7 26 15 17 20 216 155 229 155 12 0 -27 -82 -97
-203 l-45 -79 35 -35 36 -35 103 40 c57 22 144 52 193 66 49 14 91 28 94 31 4
4 -10 29 -42 68 -14 18 -18 17 -108 -18 -51 -21 -115 -49 -141 -62 -27 -13
-51 -22 -53 -20 -3 2 17 40 44 83 27 44 62 104 77 134 l28 54 -34 29 c-19 16
-46 37 -61 48 l-26 19 -127 -96 c-70 -52 -125 -87 -121 -78 17 44 76 258 76
275 0 17 -63 59 -88 59 -5 0 -14 -39 -20 -87z"/>
<path d="M947 3143 c-50 -34 -67 -50 -67 -68 0 -12 18 -78 40 -145 23 -67 40
-124 38 -125 -2 -1 -57 19 -123 45 -177 70 -156 71 -219 -6 -30 -37 -53 -71
-50 -75 7 -13 297 -211 315 -216 15 -4 49 30 49 48 0 4 -52 49 -116 100 -64
51 -112 95 -105 97 14 5 61 -10 200 -65 l113 -45 25 25 26 25 -41 124 c-43
131 -62 210 -45 193 6 -5 49 -63 97 -128 l87 -118 29 21 c17 12 30 24 30 27 0
8 -201 322 -209 327 -3 2 -37 -16 -74 -41z"/>
<path d="M1631 2858 c-19 -5 -53 -22 -75 -37 -70 -47 -70 -47 -63 -18 4 14 10
33 13 42 6 14 0 16 -37 13 -40 -3 -47 -7 -76 -52 -17 -27 -35 -66 -38 -87 -5
-30 -11 -39 -27 -39 -16 0 -19 4 -14 23 4 12 10 39 13 60 6 41 -2 45 -45 23
-48 -25 -62 -49 -71 -125 -9 -69 -31 -121 -51 -121 -5 0 -14 19 -20 43 -19 73
-21 77 -36 77 -70 0 -92 -79 -81 -289 3 -58 -17 -64 -31 -9 -16 61 -36 86 -59
72 -39 -24 -63 -74 -63 -135 0 -71 11 -101 56 -156 30 -37 34 -47 28 -78 l-6
-36 -16 23 c-33 49 -87 98 -109 98 -22 0 -23 -3 -23 -75 0 -42 6 -91 14 -109
17 -41 81 -104 122 -122 25 -11 34 -22 43 -60 7 -25 10 -48 8 -50 -2 -2 -28 9
-58 26 -67 37 -89 38 -89 5 0 -42 39 -132 72 -164 36 -35 98 -66 151 -76 34
-7 85 -51 73 -63 -3 -2 -26 1 -53 8 -37 9 -58 10 -90 1 -55 -15 -55 -33 1 -86
52 -50 118 -70 206 -62 57 5 59 4 95 -33 l38 -39 -55 6 c-60 6 -141 -9 -172
-32 -19 -14 -19 -15 -1 -35 10 -11 40 -31 68 -45 60 -30 150 -34 218 -10 49
18 89 12 113 -14 16 -17 14 -19 -30 -25 -69 -9 -124 -28 -124 -42 0 -20 67
-72 107 -83 64 -18 148 -13 198 11 l46 22 44 -24 c25 -14 45 -27 45 -30 0 -5
-53 -22 -187 -60 -40 -12 -73 -24 -73 -29 0 -4 9 -16 20 -26 24 -22 47 -18
214 36 139 44 144 45 183 24 73 -38 193 -85 232 -91 36 -6 46 -4 58 11 22 31
15 44 -29 55 -88 23 -197 62 -207 74 -8 10 0 18 37 35 l47 22 59 -21 c102 -35
186 -24 252 34 37 33 38 35 21 52 -12 13 -37 19 -87 22 -79 5 -91 20 -39 51
30 18 31 18 82 -1 91 -35 231 -6 290 60 18 20 18 21 -9 39 -22 14 -48 18 -116
18 -48 0 -88 2 -88 5 0 2 14 19 31 36 31 32 33 33 99 27 57 -5 75 -2 113 16
48 23 117 91 117 115 0 20 -74 30 -130 17 -24 -5 -46 -8 -49 -6 -11 11 32 54
61 60 87 19 176 87 209 160 22 47 25 103 6 111 -20 7 -61 -11 -101 -47 -20
-17 -39 -29 -42 -27 -2 3 1 28 7 56 9 44 16 54 52 76 102 60 148 161 121 264
-13 45 -71 23 -113 -43 -16 -25 -31 -42 -35 -38 -13 13 -6 81 10 94 32 27 64
107 64 161 0 69 -34 133 -70 133 -26 0 -42 -24 -57 -85 l-9 -35 -18 28 c-18
27 -18 29 -1 67 25 56 16 117 -28 188 -52 84 -83 73 -86 -30 -2 -72 -41 -37
-41 36 0 64 -30 118 -88 163 -69 52 -88 41 -57 -34 36 -85 5 -62 -40 30 -30
63 -78 107 -116 107 -22 0 -25 -30 -8 -62 16 -31 5 -32 -30 -2 -42 35 -161 67
-221 59 -95 -13 -92 -40 10 -92 72 -38 96 -40 163 -16 43 16 49 16 63 1 15
-14 12 -17 -36 -33 -60 -20 -71 -38 -39 -65 37 -30 87 -36 139 -16 25 10 52
20 61 22 9 3 29 -6 45 -20 l29 -25 -51 -1 c-63 0 -106 -28 -88 -56 28 -46 116
-66 197 -43 33 9 42 8 58 -7 28 -26 24 -30 -33 -30 -29 -1 -66 -6 -81 -12 -26
-11 -27 -13 -13 -39 8 -16 28 -41 45 -57 28 -27 39 -30 115 -34 l83 -4 17 -35
c20 -42 16 -50 -16 -30 -33 21 -76 29 -109 22 -24 -6 -29 -12 -29 -38 0 -35
40 -98 79 -123 14 -10 49 -23 76 -29 l50 -11 3 -57 c2 -31 1 -57 -2 -57 -3 0
-24 20 -46 44 -36 39 -92 66 -139 66 -21 0 -22 -58 -1 -111 26 -67 60 -103
117 -126 l43 -18 -6 -45 c-3 -25 -12 -51 -19 -58 -10 -11 -14 -8 -25 17 -7 17
-30 47 -52 66 -51 46 -79 44 -92 -6 -13 -52 -1 -97 44 -172 22 -36 40 -74 40
-85 0 -17 -28 -52 -42 -52 -3 0 -10 25 -17 55 -16 69 -56 122 -79 103 -41 -34
-55 -147 -27 -215 22 -51 18 -75 -16 -102 l-30 -24 6 36 c8 42 -16 134 -44
168 l-20 24 -30 -35 c-52 -61 -66 -135 -47 -256 l8 -51 -37 -22 c-40 -23 -56
-22 -35 4 15 18 10 159 -7 176 -17 17 -97 -62 -129 -126 -20 -42 -25 -65 -23
-112 l3 -58 -59 -32 c-33 -17 -68 -32 -78 -32 -10 -1 -49 15 -87 34 l-69 35 6
53 c8 77 -9 117 -79 188 -56 57 -61 60 -77 45 -13 -13 -15 -33 -14 -96 2 -46
-1 -80 -7 -80 -18 0 -60 23 -60 34 0 6 5 27 10 46 24 80 8 172 -42 243 -15 21
-27 27 -46 25 -38 -4 -52 -40 -52 -130 0 -43 -4 -78 -9 -78 -12 0 -61 58 -61
72 0 6 8 20 17 30 52 57 3 284 -51 239 -22 -18 -56 -97 -56 -129 0 -45 -12
-45 -37 0 -20 35 -22 44 -11 53 22 16 78 139 78 171 0 40 -19 104 -31 104 -25
0 -81 -50 -104 -92 -15 -27 -30 -48 -35 -48 -5 0 -19 18 -30 41 -22 43 -19 79
7 79 29 0 93 43 118 80 27 40 52 136 42 163 -9 24 -42 21 -99 -10 -31 -17 -58
-41 -73 -66 l-23 -40 -7 46 c-12 77 -3 93 62 113 74 23 143 86 143 132 0 47
-65 58 -134 21 -21 -11 -40 -18 -43 -15 -3 3 3 22 13 43 l19 38 57 -3 c48 -3
66 1 109 24 55 30 89 66 89 94 0 20 -37 30 -111 30 -37 0 -49 4 -49 15 0 30
44 39 93 20 42 -16 49 -16 99 -1 29 9 64 25 78 35 22 18 23 22 10 34 -20 19
-75 37 -113 37 -26 0 -28 2 -16 16 25 30 56 35 101 14 54 -25 92 -25 145 0 62
28 44 54 -49 74 -29 6 -38 31 -15 39 6 2 28 -3 47 -11 53 -22 139 -12 196 24
26 16 47 34 47 39 0 13 -59 42 -98 48 -16 3 -45 1 -64 -5z"/>
<path d="M518 2580 c-151 -47 -234 -269 -147 -392 45 -63 176 -90 252 -52 114
57 176 205 131 312 -38 92 -155 158 -236 132z m88 -114 c121 -56 127 -197 10
-241 -84 -32 -183 10 -204 89 -18 65 11 129 71 157 54 24 62 24 123 -5z"/>
<path d="M3039 2562 c-124 -65 -151 -208 -63 -340 85 -129 294 -129 361 1 24
48 20 144 -9 208 -33 72 -69 113 -121 138 -58 28 -104 26 -168 -7z m178 -92
c82 -50 87 -174 9 -225 -36 -24 -115 -30 -158 -12 -71 30 -98 115 -56 177 49
72 142 99 205 60z"/>
<path d="M1518 2360 c-69 -12 -130 -59 -163 -125 -56 -112 -35 -207 68 -302
74 -68 112 -83 217 -83 91 0 92 0 136 -37 24 -21 44 -40 44 -44 0 -11 -257
-242 -280 -253 -25 -12 -25 -38 0 -61 21 -19 50 -14 50 9 0 8 15 26 33 41 17
15 81 74 141 132 87 82 112 101 121 91 7 -7 66 -71 132 -143 66 -71 123 -140
127 -152 9 -29 13 -29 59 3 40 27 44 45 10 54 -19 5 -303 268 -303 281 0 3 26
18 58 32 39 18 88 28 158 35 118 12 143 23 205 89 91 97 113 227 54 313 -36
52 -109 91 -184 97 -48 4 -64 1 -111 -24 -102 -54 -154 -154 -171 -330 -5 -58
-17 -119 -25 -135 l-16 -31 -21 22 c-19 18 -22 36 -27 153 -5 114 -9 141 -31
188 -60 129 -169 199 -281 180z"/>
<path d="M3207 2049 c-115 -26 -177 -108 -177 -234 0 -109 36 -169 125 -211
90 -42 176 -27 232 40 38 46 53 96 53 172 0 79 -15 128 -52 170 -51 58 -111
78 -181 63z m104 -114 c96 -50 88 -207 -11 -242 -39 -14 -101 -8 -143 14 -59
30 -83 112 -51 174 30 58 140 87 205 54z"/>
<path d="M387 2036 c-77 -28 -123 -96 -133 -194 -12 -110 43 -225 123 -258
103 -43 240 20 283 131 17 42 15 153 -3 195 -43 100 -174 161 -270 126z m149
-112 c52 -25 74 -59 74 -115 0 -65 -33 -103 -105 -125 -94 -27 -173 14 -189
99 -9 49 19 114 58 138 39 24 116 25 162 3z"/>
<path d="M672 1510 l-22 -10 27 -52 c52 -99 31 -193 -53 -233 -44 -20 -91 -15
-133 14 -36 26 -81 114 -81 158 0 28 -4 33 -22 33 -47 0 -54 -13 -41 -75 17
-81 51 -141 106 -191 100 -89 227 -69 305 49 23 34 27 51 27 111 0 61 -5 82
-33 139 -34 68 -40 73 -80 57z"/>
<path d="M2971 1498 c-53 -142 -73 -214 -67 -252 10 -59 45 -113 95 -146 106
-70 200 -44 280 80 41 63 98 217 85 229 -10 8 -355 111 -373 111 -6 0 -15 -10
-20 -22z m174 -123 c64 -25 121 -47 126 -51 5 -3 -1 -24 -12 -47 -62 -124
-156 -148 -240 -61 -31 32 -34 40 -33 92 0 59 16 112 33 112 6 0 62 -20 126
-45z"/>
<path d="M758 1019 c-32 -18 -41 -48 -24 -74 21 -32 52 -40 81 -21 33 21 34
69 3 90 -26 18 -36 19 -60 5z"/>
<path d="M2937 1012 c-20 -22 -22 -63 -5 -80 7 -7 26 -12 43 -12 38 0 55 16
55 50 0 52 -60 78 -93 42z"/>
<path d="M980 843 c-71 -93 -130 -172 -130 -178 1 -5 49 -45 107 -87 111 -80
119 -82 144 -37 8 16 -2 27 -61 71 -38 29 -70 55 -70 58 0 3 47 66 105 140 57
74 105 140 105 147 0 11 -51 53 -64 53 -3 0 -64 -75 -136 -167z"/>
<path d="M2554 956 c-51 -54 -84 -136 -84 -212 0 -82 34 -140 102 -175 125
-64 251 -12 318 130 l24 53 -23 19 c-13 10 -26 19 -30 19 -3 -1 -17 -23 -29
-51 -58 -123 -206 -133 -265 -19 -30 59 -4 152 62 214 29 28 30 31 14 48 -25
27 -42 22 -89 -26z"/>
<path d="M1700 655 l0 -35 65 0 65 0 0 -181 0 -181 23 6 c12 3 32 6 44 6 22 0
23 2 25 173 l3 172 62 3 c56 3 62 5 67 28 4 14 4 29 1 34 -4 6 -81 10 -181 10
l-174 0 0 -35z"/>
<path d="M1392 574 c-15 -10 -22 -25 -22 -48 0 -41 15 -56 57 -56 62 0 80 80
24 109 -26 14 -32 14 -59 -5z"/>
<path d="M2229 549 c-26 -26 -21 -57 14 -82 l27 -21 28 21 c15 11 28 29 30 41
4 25 -30 62 -58 62 -11 0 -29 -9 -41 -21z"/>
</g>
</svg>
